# xmcd CD database file
#
# Track frame offsets:
#	150
#	17210
#	38977
#	51695
#
# Disc length: 916 seconds
#
# Revision: 0
# Processed by: cddbd v1.5.2PL0 Copyright (c) Steve Scherf et al.
# Submitted via: CDex 1.51
#
DISCID=35039204
DTITLE=Lambchop - your sucking funny day
DYEAR=1997
DGENRE=Country
TTITLE0=your sucking funny day
TTITLE1=the petrified florist
TTITLE2=the theme from the neal miller show
TTITLE3=your fucking sunny day (hidden track)
EXTD=YEAR: 1997
EXTT0=
EXTT1=
EXTT2=
EXTT3=
PLAYORDER=
